{
    "asset" : {
        "generator" : "Khronos glTF Blender I/O v3.3.27",
        "version" : "2.0"
    },
    "scene" : 0,
    "scenes" : [
        {
            "name" : "Scene",
            "nodes" : [
                0
            ]
        }
    ],
    "nodes" : [
        {
            "mesh" : 0,
            "name" : "Astronaut"
        }
    ],
    "materials" : [
        {
            "doubleSided" : true,
            "emissiveFactor" : [
                1,
                1,
                1
            ],
            "emissiveTexture" : {
                "index" : 0
            },
            "name" : "Astronaut",
            "pbrMetallicRoughness" : {
                "baseColorFactor" : [
                    0,
                    0,
                    0,
                    1
                ]
            }
        },
        {
            "name" : "Outline",
            "pbrMetallicRoughness" : {}
        },
        {
            "doubleSided" : true,
            "emissiveFactor" : [
                1,
                1,
                1
            ],
            "emissiveTexture" : {
                "index" : 1
            },
            "name" : "Astronaut_backpack",
            "pbrMetallicRoughness" : {
                "baseColorFactor" : [
                    0,
                    0,
                    0,
                    1
                ]
            }
        }
    ],
    "meshes" : [
        {
            "name" : "Cube.002",
            "primitives" : [
                {
                    "attributes" : {
                        "POSITION" : 0,
                        "NORMAL" : 1,
                        "TEXCOORD_0" : 2
                    },
                    "indices" : 3,
                    "material" : 0
                },
                {
                    "attributes" : {
                        "POSITION" : 4,
                        "NORMAL" : 5,
                        "TEXCOORD_0" : 6
                    },
                    "indices" : 7,
                    "material" : 1
                },
                {
                    "attributes" : {
                        "POSITION" : 8,
                        "NORMAL" : 9,
                        "TEXCOORD_0" : 10
                    },
                    "indices" : 11,
                    "material" : 2
                }
            ]
        }
    ],
    "textures" : [
        {
            "sampler" : 0,
            "source" : 0
        },
        {
            "sampler" : 0,
            "source" : 1
        }
    ],
    "images" : [
        {
            "bufferView" : 4,
            "mimeType" : "image/png",
            "name" : "Astronaut"
        },
        {
            "bufferView" : 13,
            "mimeType" : "image/png",
            "name" : "Astronaut_Backpack"
        }
    ],
    "accessors" : [
        {
            "bufferView" : 0,
            "componentType" : 5126,
            "count" : 2276,
            "max" : [
                0.141556516289711,
                0.20327456295490265,
                0.1637662947177887
            ],
            "min" : [
                -0.09838667511940002,
                -0.21612794697284698,
                -0.09346765279769897
            ],
            "type" : "VEC3"
        },
        {
            "bufferView" : 1,
            "componentType" : 5126,
            "count" : 2276,
            "type" : "VEC3"
        },
        {
            "bufferView" : 2,
            "componentType" : 5126,
            "count" : 2276,
            "type" : "VEC2"
        },
        {
            "bufferView" : 3,
            "componentType" : 5123,
            "count" : 12720,
            "type" : "SCALAR"
        },
        {
            "bufferView" : 5,
            "componentType" : 5126,
            "count" : 2850,
            "max" : [
                0.15686681866645813,
                0.2187848836183548,
                0.1780792772769928
            ],
            "min" : [
                -0.16339807212352753,
                -0.23163823783397675,
                -0.1803305298089981
            ],
            "type" : "VEC3"
        },
        {
            "bufferView" : 6,
            "componentType" : 5126,
            "count" : 2850,
            "type" : "VEC3"
        },
        {
            "bufferView" : 7,
            "componentType" : 5126,
            "count" : 2850,
            "type" : "VEC2"
        },
        {
            "bufferView" : 8,
            "componentType" : 5123,
            "count" : 15600,
            "type" : "SCALAR"
        },
        {
            "bufferView" : 9,
            "componentType" : 5126,
            "count" : 513,
            "max" : [
                0.016493655741214752,
                0.1078878790140152,
                -0.030786968767642975
            ],
            "min" : [
                -0.15560376644134521,
                -0.0929761752486229,
                -0.1725320816040039
            ],
            "type" : "VEC3"
        },
        {
            "bufferView" : 10,
            "componentType" : 5126,
            "count" : 513,
            "type" : "VEC3"
        },
        {
            "bufferView" : 11,
            "componentType" : 5126,
            "count" : 513,
            "type" : "VEC2"
        },
        {
            "bufferView" : 12,
            "componentType" : 5123,
            "count" : 2880,
            "type" : "SCALAR"
        }
    ],
    "bufferViews" : [
        {
            "buffer" : 0,
            "byteLength" : 27312,
            "byteOffset" : 0,
            "target" : 34962
        },
        {
            "buffer" : 0,
            "byteLength" : 27312,
            "byteOffset" : 27312,
            "target" : 34962
        },
        {
            "buffer" : 0,
            "byteLength" : 18208,
            "byteOffset" : 54624,
            "target" : 34962
        },
        {
            "buffer" : 0,
            "byteLength" : 25440,
            "byteOffset" : 72832,
            "target" : 34963
        },
        {
            "buffer" : 0,
            "byteLength" : 14504,
            "byteOffset" : 98272
        },
        {
            "buffer" : 0,
            "byteLength" : 34200,
            "byteOffset" : 112776,
            "target" : 34962
        },
        {
            "buffer" : 0,
            "byteLength" : 34200,
            "byteOffset" : 146976,
            "target" : 34962
        },
        {
            "buffer" : 0,
            "byteLength" : 22800,
            "byteOffset" : 181176,
            "target" : 34962
        },
        {
            "buffer" : 0,
            "byteLength" : 31200,
            "byteOffset" : 203976,
            "target" : 34963
        },
        {
            "buffer" : 0,
            "byteLength" : 6156,
            "byteOffset" : 235176,
            "target" : 34962
        },
        {
            "buffer" : 0,
            "byteLength" : 6156,
            "byteOffset" : 241332,
            "target" : 34962
        },
        {
            "buffer" : 0,
            "byteLength" : 4104,
            "byteOffset" : 247488,
            "target" : 34962
        },
        {
            "buffer" : 0,
            "byteLength" : 5760,
            "byteOffset" : 251592,
            "target" : 34963
        },
        {
            "buffer" : 0,
            "byteLength" : 27612,
            "byteOffset" : 257352
        }
    ],
    "samplers" : [
        {
            "magFilter" : 9729,
            "minFilter" : 9987
        }
    ],
    "buffers" : [
        {
            "byteLength" : 284964,
            "uri" : "data:application/octet-stream;base64,"
        }
    ]
}
