{
    "asset" : {
        "generator" : "Khronos glTF Blender I/O v3.3.27",
        "version" : "2.0"
    },
    "extensionsUsed" : [
        "KHR_materials_specular",
        "KHR_materials_ior"
    ],
    "scene" : 0,
    "scenes" : [
        {
            "name" : "Scene",
            "nodes" : [
                0
            ]
        }
    ],
    "nodes" : [
        {
            "mesh" : 0,
            "name" : "Battery"
        }
    ],
    "materials" : [
        {
            "doubleSided" : true,
            "emissiveFactor" : [
                0.06010128930211067,
                0.5,
                0.04008360207080841
            ],
            "extensions" : {
                "KHR_materials_specular" : {
                    "specularColorFactor" : [
                        2.371357614441398,
                        2.371357614441398,
                        2.371357614441398
                    ]
                },
                "KHR_materials_ior" : {
                    "ior" : 1.4500000476837158
                }
            },
            "name" : "Default.001",
            "pbrMetallicRoughness" : {
                "baseColorFactor" : [
                    0.010995835065841675,
                    0.3728773891925812,
                    0,
                    1
                ],
                "metallicFactor" : 0
            }
        },
        {
            "doubleSided" : true,
            "name" : "Material.034",
            "pbrMetallicRoughness" : {
                "baseColorFactor" : [
                    0.07971648871898651,
                    0.07387840747833252,
                    0.38435015082359314,
                    1
                ],
                "roughnessFactor" : 0.5
            }
        },
        {
            "doubleSided" : true,
            "name" : "Material.035",
            "pbrMetallicRoughness" : {
                "baseColorFactor" : [
                    0.8000000715255737,
                    0.6836592555046082,
                    0.00618034927174449,
                    1
                ],
                "metallicFactor" : 0,
                "roughnessFactor" : 0.5
            }
        },
        {
            "doubleSided" : true,
            "name" : "Material.036",
            "pbrMetallicRoughness" : {
                "baseColorFactor" : [
                    0.8000000715255737,
                    0,
                    0.38060203194618225,
                    1
                ],
                "metallicFactor" : 0,
                "roughnessFactor" : 0.5
            }
        }
    ],
    "meshes" : [
        {
            "name" : "Battery_Shield_v20:_Component2:1:_Placa:1:_Body2.005",
            "primitives" : [
                {
                    "attributes" : {
                        "POSITION" : 0,
                        "NORMAL" : 1,
                        "TEXCOORD_0" : 2
                    },
                    "indices" : 3,
                    "material" : 0
                },
                {
                    "attributes" : {
                        "POSITION" : 4,
                        "NORMAL" : 5,
                        "TEXCOORD_0" : 6
                    },
                    "indices" : 7,
                    "material" : 1
                },
                {
                    "attributes" : {
                        "POSITION" : 8,
                        "NORMAL" : 9,
                        "TEXCOORD_0" : 10
                    },
                    "indices" : 11,
                    "material" : 2
                },
                {
                    "attributes" : {
                        "POSITION" : 12,
                        "NORMAL" : 13,
                        "TEXCOORD_0" : 14
                    },
                    "indices" : 15,
                    "material" : 3
                }
            ]
        }
    ],
    "accessors" : [
        {
            "bufferView" : 0,
            "componentType" : 5126,
            "count" : 5006,
            "max" : [
                0.08234895765781403,
                0.21854153275489807,
                0.08235009759664536
            ],
            "min" : [
                -0.08235101401805878,
                -0.1693585067987442,
                -0.08235006034374237
            ],
            "type" : "VEC3"
        },
        {
            "bufferView" : 1,
            "componentType" : 5126,
            "count" : 5006,
            "type" : "VEC3"
        },
        {
            "bufferView" : 2,
            "componentType" : 5126,
            "count" : 5006,
            "type" : "VEC2"
        },
        {
            "bufferView" : 3,
            "componentType" : 5123,
            "count" : 16794,
            "type" : "SCALAR"
        },
        {
            "bufferView" : 4,
            "componentType" : 5126,
            "count" : 3412,
            "max" : [
                0.08099900186061859,
                0.22064150869846344,
                0.08100014179944992
            ],
            "min" : [
                -0.08100105822086334,
                -0.16845853626728058,
                -0.08100006729364395
            ],
            "type" : "VEC3"
        },
        {
            "bufferView" : 5,
            "componentType" : 5126,
            "count" : 3412,
            "type" : "VEC3"
        },
        {
            "bufferView" : 6,
            "componentType" : 5126,
            "count" : 3412,
            "type" : "VEC2"
        },
        {
            "bufferView" : 7,
            "componentType" : 5123,
            "count" : 12798,
            "type" : "SCALAR"
        },
        {
            "bufferView" : 8,
            "componentType" : 5126,
            "count" : 398,
            "max" : [
                0.07649892568588257,
                0.21764151751995087,
                0.07650013267993927
            ],
            "min" : [
                -0.07650098204612732,
                0.2146414816379547,
                -0.07649987190961838
            ],
            "type" : "VEC3"
        },
        {
            "bufferView" : 9,
            "componentType" : 5126,
            "count" : 398,
            "type" : "VEC3"
        },
        {
            "bufferView" : 10,
            "componentType" : 5126,
            "count" : 398,
            "type" : "VEC2"
        },
        {
            "bufferView" : 11,
            "componentType" : 5123,
            "count" : 768,
            "type" : "SCALAR"
        },
        {
            "bufferView" : 12,
            "componentType" : 5126,
            "count" : 32,
            "max" : [
                0.07570593059062958,
                0.21344153583049774,
                0.07570707052946091
            ],
            "min" : [
                -0.07570798695087433,
                0.21344146132469177,
                -0.0757068321108818
            ],
            "type" : "VEC3"
        },
        {
            "bufferView" : 13,
            "componentType" : 5126,
            "count" : 32,
            "type" : "VEC3"
        },
        {
            "bufferView" : 14,
            "componentType" : 5126,
            "count" : 32,
            "type" : "VEC2"
        },
        {
            "bufferView" : 15,
            "componentType" : 5123,
            "count" : 90,
            "type" : "SCALAR"
        }
    ],
    "bufferViews" : [
        {
            "buffer" : 0,
            "byteLength" : 60072,
            "byteOffset" : 0,
            "target" : 34962
        },
        {
            "buffer" : 0,
            "byteLength" : 60072,
            "byteOffset" : 60072,
            "target" : 34962
        },
        {
            "buffer" : 0,
            "byteLength" : 40048,
            "byteOffset" : 120144,
            "target" : 34962
        },
        {
            "buffer" : 0,
            "byteLength" : 33588,
            "byteOffset" : 160192,
            "target" : 34963
        },
        {
            "buffer" : 0,
            "byteLength" : 40944,
            "byteOffset" : 193780,
            "target" : 34962
        },
        {
            "buffer" : 0,
            "byteLength" : 40944,
            "byteOffset" : 234724,
            "target" : 34962
        },
        {
            "buffer" : 0,
            "byteLength" : 27296,
            "byteOffset" : 275668,
            "target" : 34962
        },
        {
            "buffer" : 0,
            "byteLength" : 25596,
            "byteOffset" : 302964,
            "target" : 34963
        },
        {
            "buffer" : 0,
            "byteLength" : 4776,
            "byteOffset" : 328560,
            "target" : 34962
        },
        {
            "buffer" : 0,
            "byteLength" : 4776,
            "byteOffset" : 333336,
            "target" : 34962
        },
        {
            "buffer" : 0,
            "byteLength" : 3184,
            "byteOffset" : 338112,
            "target" : 34962
        },
        {
            "buffer" : 0,
            "byteLength" : 1536,
            "byteOffset" : 341296,
            "target" : 34963
        },
        {
            "buffer" : 0,
            "byteLength" : 384,
            "byteOffset" : 342832,
            "target" : 34962
        },
        {
            "buffer" : 0,
            "byteLength" : 384,
            "byteOffset" : 343216,
            "target" : 34962
        },
        {
            "buffer" : 0,
            "byteLength" : 256,
            "byteOffset" : 343600,
            "target" : 34962
        },
        {
            "buffer" : 0,
            "byteLength" : 180,
            "byteOffset" : 343856,
            "target" : 34963
        }
    ],
    "buffers" : [
        {
            "byteLength" : 344036,
            "uri" : "data:application/octet-stream;base64,"
        }
    ]
}
