{
    "asset" : {
        "generator" : "Khronos glTF Blender I/O v3.3.27",
        "version" : "2.0"
    },
    "scene" : 0,
    "scenes" : [
        {
            "name" : "Scene",
            "nodes" : [
                0
            ]
        }
    ],
    "nodes" : [
        {
            "mesh" : 0,
            "name" : "corpo.004"
        }
    ],
    "materials" : [
        {
            "doubleSided" : true,
            "name" : "cabeloM2",
            "pbrMetallicRoughness" : {
                "baseColorFactor" : [
                    0.9056618213653564,
                    1,
                    0.052755121141672134,
                    1
                ],
                "metallicFactor" : 0,
                "roughnessFactor" : 0.5
            }
        },
        {
            "doubleSided" : true,
            "name" : "peleM2",
            "pbrMetallicRoughness" : {
                "baseColorFactor" : [
                    0.17886139452457428,
                    0.04451829567551613,
                    0.022591467946767807,
                    1
                ],
                "metallicFactor" : 0,
                "roughnessFactor" : 0.5
            }
        },
        {
            "doubleSided" : true,
            "name" : "calcaM2",
            "pbrMetallicRoughness" : {
                "baseColorFactor" : [
                    0.20986425876617432,
                    0.4683247208595276,
                    0.8000000715255737,
                    1
                ],
                "metallicFactor" : 0,
                "roughnessFactor" : 0.5
            }
        },
        {
            "doubleSided" : true,
            "name" : "blusaM2",
            "pbrMetallicRoughness" : {
                "baseColorFactor" : [
                    0.8000000715255737,
                    0.19010010361671448,
                    0,
                    1
                ],
                "metallicFactor" : 0,
                "roughnessFactor" : 0.5
            }
        },
        {
            "doubleSided" : true,
            "name" : "sapatoM2",
            "pbrMetallicRoughness" : {
                "baseColorFactor" : [
                    0.00425695301964879,
                    0,
                    0.16264142096042633,
                    1
                ],
                "roughnessFactor" : 0.5
            }
        }
    ],
    "meshes" : [
        {
            "name" : "Cylinder.005",
            "primitives" : [
                {
                    "attributes" : {
                        "POSITION" : 0,
                        "NORMAL" : 1,
                        "TEXCOORD_0" : 2
                    },
                    "indices" : 3,
                    "material" : 0
                },
                {
                    "attributes" : {
                        "POSITION" : 4,
                        "NORMAL" : 5,
                        "TEXCOORD_0" : 6
                    },
                    "indices" : 7,
                    "material" : 1
                },
                {
                    "attributes" : {
                        "POSITION" : 8,
                        "NORMAL" : 9,
                        "TEXCOORD_0" : 10
                    },
                    "indices" : 11,
                    "material" : 2
                },
                {
                    "attributes" : {
                        "POSITION" : 12,
                        "NORMAL" : 13,
                        "TEXCOORD_0" : 14
                    },
                    "indices" : 15,
                    "material" : 3
                },
                {
                    "attributes" : {
                        "POSITION" : 16,
                        "NORMAL" : 17,
                        "TEXCOORD_0" : 18
                    },
                    "indices" : 19,
                    "material" : 4
                }
            ]
        }
    ],
    "accessors" : [
        {
            "bufferView" : 0,
            "componentType" : 5126,
            "count" : 420,
            "max" : [
                0.12336654961109161,
                1.7931535243988037,
                0.16313457489013672
            ],
            "min" : [
                -0.12330325692892075,
                1.5378886461257935,
                -0.10012612491846085
            ],
            "type" : "VEC3"
        },
        {
            "bufferView" : 1,
            "componentType" : 5126,
            "count" : 420,
            "type" : "VEC3"
        },
        {
            "bufferView" : 2,
            "componentType" : 5126,
            "count" : 420,
            "type" : "VEC2"
        },
        {
            "bufferView" : 3,
            "componentType" : 5123,
            "count" : 1812,
            "type" : "SCALAR"
        },
        {
            "bufferView" : 4,
            "componentType" : 5126,
            "count" : 815,
            "max" : [
                0.45654532313346863,
                1.6952656507492065,
                0.14064042270183563
            ],
            "min" : [
                -0.45654532313346863,
                0.11455889046192169,
                -0.09008659422397614
            ],
            "type" : "VEC3"
        },
        {
            "bufferView" : 5,
            "componentType" : 5126,
            "count" : 815,
            "type" : "VEC3"
        },
        {
            "bufferView" : 6,
            "componentType" : 5126,
            "count" : 815,
            "type" : "VEC2"
        },
        {
            "bufferView" : 7,
            "componentType" : 5123,
            "count" : 2574,
            "type" : "SCALAR"
        },
        {
            "bufferView" : 8,
            "componentType" : 5126,
            "count" : 249,
            "max" : [
                0.1679525375366211,
                1.0506292581558228,
                0.10288215428590775
            ],
            "min" : [
                -0.1679525375366211,
                0.09464388340711594,
                -0.11456703394651413
            ],
            "type" : "VEC3"
        },
        {
            "bufferView" : 9,
            "componentType" : 5126,
            "count" : 249,
            "type" : "VEC3"
        },
        {
            "bufferView" : 10,
            "componentType" : 5126,
            "count" : 249,
            "type" : "VEC2"
        },
        {
            "bufferView" : 11,
            "componentType" : 5123,
            "count" : 738,
            "type" : "SCALAR"
        },
        {
            "bufferView" : 12,
            "componentType" : 5126,
            "count" : 179,
            "max" : [
                0.16743779182434082,
                1.4782288074493408,
                0.1146191656589508
            ],
            "min" : [
                -0.16743779182434082,
                1.012007236480713,
                -0.09945715218782425
            ],
            "type" : "VEC3"
        },
        {
            "bufferView" : 13,
            "componentType" : 5126,
            "count" : 179,
            "type" : "VEC3"
        },
        {
            "bufferView" : 14,
            "componentType" : 5126,
            "count" : 179,
            "type" : "VEC2"
        },
        {
            "bufferView" : 15,
            "componentType" : 5123,
            "count" : 618,
            "type" : "SCALAR"
        },
        {
            "bufferView" : 16,
            "componentType" : 5126,
            "count" : 170,
            "max" : [
                0.17461031675338745,
                0.09464388340711594,
                0.18360041081905365
            ],
            "min" : [
                -0.17461031675338745,
                -8.939098350424501e-10,
                -0.04720514640212059
            ],
            "type" : "VEC3"
        },
        {
            "bufferView" : 17,
            "componentType" : 5126,
            "count" : 170,
            "type" : "VEC3"
        },
        {
            "bufferView" : 18,
            "componentType" : 5126,
            "count" : 170,
            "type" : "VEC2"
        },
        {
            "bufferView" : 19,
            "componentType" : 5123,
            "count" : 528,
            "type" : "SCALAR"
        }
    ],
    "bufferViews" : [
        {
            "buffer" : 0,
            "byteLength" : 5040,
            "byteOffset" : 0,
            "target" : 34962
        },
        {
            "buffer" : 0,
            "byteLength" : 5040,
            "byteOffset" : 5040,
            "target" : 34962
        },
        {
            "buffer" : 0,
            "byteLength" : 3360,
            "byteOffset" : 10080,
            "target" : 34962
        },
        {
            "buffer" : 0,
            "byteLength" : 3624,
            "byteOffset" : 13440,
            "target" : 34963
        },
        {
            "buffer" : 0,
            "byteLength" : 9780,
            "byteOffset" : 17064,
            "target" : 34962
        },
        {
            "buffer" : 0,
            "byteLength" : 9780,
            "byteOffset" : 26844,
            "target" : 34962
        },
        {
            "buffer" : 0,
            "byteLength" : 6520,
            "byteOffset" : 36624,
            "target" : 34962
        },
        {
            "buffer" : 0,
            "byteLength" : 5148,
            "byteOffset" : 43144,
            "target" : 34963
        },
        {
            "buffer" : 0,
            "byteLength" : 2988,
            "byteOffset" : 48292,
            "target" : 34962
        },
        {
            "buffer" : 0,
            "byteLength" : 2988,
            "byteOffset" : 51280,
            "target" : 34962
        },
        {
            "buffer" : 0,
            "byteLength" : 1992,
            "byteOffset" : 54268,
            "target" : 34962
        },
        {
            "buffer" : 0,
            "byteLength" : 1476,
            "byteOffset" : 56260,
            "target" : 34963
        },
        {
            "buffer" : 0,
            "byteLength" : 2148,
            "byteOffset" : 57736,
            "target" : 34962
        },
        {
            "buffer" : 0,
            "byteLength" : 2148,
            "byteOffset" : 59884,
            "target" : 34962
        },
        {
            "buffer" : 0,
            "byteLength" : 1432,
            "byteOffset" : 62032,
            "target" : 34962
        },
        {
            "buffer" : 0,
            "byteLength" : 1236,
            "byteOffset" : 63464,
            "target" : 34963
        },
        {
            "buffer" : 0,
            "byteLength" : 2040,
            "byteOffset" : 64700,
            "target" : 34962
        },
        {
            "buffer" : 0,
            "byteLength" : 2040,
            "byteOffset" : 66740,
            "target" : 34962
        },
        {
            "buffer" : 0,
            "byteLength" : 1360,
            "byteOffset" : 68780,
            "target" : 34962
        },
        {
            "buffer" : 0,
            "byteLength" : 1056,
            "byteOffset" : 70140,
            "target" : 34963
        }
    ],
    "buffers" : [
        {
            "byteLength" : 71196,
            "uri" : "data:application/octet-stream;base64,"
        }
    ]
}
