{
    "asset" : {
        "generator" : "Khronos glTF Blender I/O v3.3.27",
        "version" : "2.0"
    },
    "scene" : 0,
    "scenes" : [
        {
            "name" : "Scene",
            "nodes" : [
                3
            ]
        }
    ],
    "nodes" : [
        {
            "mesh" : 0,
            "name" : "Object_2"
        },
        {
            "mesh" : 1,
            "name" : "Object_3"
        },
        {
            "children" : [
                0,
                1
            ],
            "name" : "285ec5a60675443d96a9649e4f193e85.obj.cleaner.materialmerger.gle",
            "scale" : [
                0.10000000149011612,
                0.10000000149011612,
                0.10000000149011612
            ],
            "translation" : [
                0,
                -0.014557421207427979,
                -0.02995985746383667
            ]
        },
        {
            "children" : [
                2
            ],
            "name" : "Sketchfab_model",
            "scale" : [
                0.5,
                0.5,
                0.5
            ]
        }
    ],
    "materials" : [
        {
            "doubleSided" : true,
            "name" : "Material.003",
            "pbrMetallicRoughness" : {
                "baseColorTexture" : {
                    "index" : 0
                },
                "metallicRoughnessTexture" : {
                    "index" : 1
                },
                "roughnessFactor" : 0.3786807954311371
            }
        },
        {
            "doubleSided" : true,
            "name" : "Material.004",
            "pbrMetallicRoughness" : {
                "metallicFactor" : 0,
                "roughnessFactor" : 0
            }
        }
    ],
    "meshes" : [
        {
            "name" : "Object_0",
            "primitives" : [
                {
                    "attributes" : {
                        "POSITION" : 0,
                        "NORMAL" : 1,
                        "TEXCOORD_0" : 2
                    },
                    "indices" : 3,
                    "material" : 0
                }
            ]
        },
        {
            "name" : "Object_1",
            "primitives" : [
                {
                    "attributes" : {
                        "POSITION" : 4,
                        "NORMAL" : 5,
                        "TEXCOORD_0" : 6
                    },
                    "indices" : 7,
                    "material" : 1
                }
            ]
        }
    ],
    "textures" : [
        {
            "sampler" : 0,
            "source" : 0
        },
        {
            "sampler" : 0,
            "source" : 1
        }
    ],
    "images" : [
        {
            "bufferView" : 4,
            "mimeType" : "image/png",
            "name" : "Image_0"
        },
        {
            "bufferView" : 5,
            "mimeType" : "image/png",
            "name" : "Image_1"
        }
    ],
    "accessors" : [
        {
            "bufferView" : 0,
            "componentType" : 5126,
            "count" : 2346,
            "max" : [
                2.4602670669555664,
                2.493407964706421,
                0.6243370175361633
            ],
            "min" : [
                -2.4934089183807373,
                -2.4488930702209473,
                -0.6089339852333069
            ],
            "type" : "VEC3"
        },
        {
            "bufferView" : 1,
            "componentType" : 5126,
            "count" : 2346,
            "type" : "VEC3"
        },
        {
            "bufferView" : 2,
            "componentType" : 5126,
            "count" : 2346,
            "type" : "VEC2"
        },
        {
            "bufferView" : 3,
            "componentType" : 5123,
            "count" : 13848,
            "type" : "SCALAR"
        },
        {
            "bufferView" : 6,
            "componentType" : 5126,
            "count" : 1046,
            "max" : [
                0.9377800226211548,
                2.336441993713379,
                0.48255598545074463
            ],
            "min" : [
                -2.337083101272583,
                -0.9384210109710693,
                -0.48255598545074463
            ],
            "type" : "VEC3"
        },
        {
            "bufferView" : 7,
            "componentType" : 5126,
            "count" : 1046,
            "type" : "VEC3"
        },
        {
            "bufferView" : 8,
            "componentType" : 5126,
            "count" : 1046,
            "type" : "VEC2"
        },
        {
            "bufferView" : 9,
            "componentType" : 5123,
            "count" : 5760,
            "type" : "SCALAR"
        }
    ],
    "bufferViews" : [
        {
            "buffer" : 0,
            "byteLength" : 28152,
            "byteOffset" : 0,
            "target" : 34962
        },
        {
            "buffer" : 0,
            "byteLength" : 28152,
            "byteOffset" : 28152,
            "target" : 34962
        },
        {
            "buffer" : 0,
            "byteLength" : 18768,
            "byteOffset" : 56304,
            "target" : 34962
        },
        {
            "buffer" : 0,
            "byteLength" : 27696,
            "byteOffset" : 75072,
            "target" : 34963
        },
        {
            "buffer" : 0,
            "byteLength" : 3195,
            "byteOffset" : 102768
        },
        {
            "buffer" : 0,
            "byteLength" : 3589,
            "byteOffset" : 105964
        },
        {
            "buffer" : 0,
            "byteLength" : 12552,
            "byteOffset" : 109556,
            "target" : 34962
        },
        {
            "buffer" : 0,
            "byteLength" : 12552,
            "byteOffset" : 122108,
            "target" : 34962
        },
        {
            "buffer" : 0,
            "byteLength" : 8368,
            "byteOffset" : 134660,
            "target" : 34962
        },
        {
            "buffer" : 0,
            "byteLength" : 11520,
            "byteOffset" : 143028,
            "target" : 34963
        }
    ],
    "samplers" : [
        {
            "magFilter" : 9729,
            "minFilter" : 9987
        }
    ],
    "buffers" : [
        {
            "byteLength" : 154548,
            "uri" : "data:application/octet-stream;base64,"
        }
    ]
}
