{
    "asset" : {
        "generator" : "Khronos glTF Blender I/O v3.3.27",
        "version" : "2.0"
    },
    "scene" : 0,
    "scenes" : [
        {
            "name" : "Scene",
            "nodes" : [
                2,
                6
            ]
        }
    ],
    "nodes" : [
        {
            "mesh" : 0,
            "name" : "Rounded Cube Flat",
            "rotation" : [
                0.7071068286895752,
                0,
                0,
                0.7071067094802856
            ],
            "scale" : [
                2.148404121398926,
                2.1484036445617676,
                1.5038825273513794
            ],
            "translation" : [
                0,
                0.0013320923317223787,
                -0.016238577663898468
            ]
        },
        {
            "mesh" : 1,
            "name" : "Rounded Cube Flat 2",
            "rotation" : [
                0.6532816290855408,
                -0.27059799432754517,
                -0.27059808373451233,
                0.6532813310623169
            ],
            "scale" : [
                0.42968082427978516,
                2.052974224090576,
                0.42968109250068665
            ],
            "translation" : [
                0,
                -0.14263097941875458,
                -0.016238559037446976
            ]
        },
        {
            "children" : [
                0,
                1
            ],
            "name" : "bubble"
        },
        {
            "mesh" : 2,
            "name" : "Cylinder 3",
            "rotation" : [
                0.7071068286895752,
                0,
                0,
                0.7071067094802856
            ],
            "scale" : [
                0.19693692028522491,
                0.039387401193380356,
                0.19693700969219208
            ],
            "translation" : [
                0.08952125161886215,
                8.407235145568848e-05,
                0.024012699723243713
            ]
        },
        {
            "mesh" : 3,
            "name" : "Cylinder 4",
            "rotation" : [
                0.7071068286895752,
                0,
                0,
                0.7071067094802856
            ],
            "scale" : [
                0.1969369500875473,
                0.03938736394047737,
                0.19693700969219208
            ],
            "translation" : [
                4.418711796461139e-06,
                8.407235145568848e-05,
                0.02401268295943737
            ]
        },
        {
            "mesh" : 4,
            "name" : "Cylinder 5",
            "rotation" : [
                0.7071068286895752,
                0,
                0,
                0.7071067094802856
            ],
            "scale" : [
                0.19693692028522491,
                0.039387401193380356,
                0.19693699479103088
            ],
            "translation" : [
                -0.08963717520236969,
                6.321072578430176e-05,
                0.024012641981244087
            ]
        },
        {
            "children" : [
                3,
                4,
                5
            ],
            "name" : "dots"
        }
    ],
    "materials" : [
        {
            "doubleSided" : true,
            "name" : "Plastic 2",
            "pbrMetallicRoughness" : {
                "baseColorFactor" : [
                    0.27850764989852905,
                    0.27190786600112915,
                    0.8879240155220032,
                    1
                ],
                "metallicFactor" : 0,
                "roughnessFactor" : 0.4000000059604645
            }
        },
        {
            "doubleSided" : true,
            "name" : "Matte",
            "pbrMetallicRoughness" : {
                "baseColorFactor" : [
                    1,
                    0.07818746566772461,
                    0.07818746566772461,
                    1
                ],
                "metallicFactor" : 0
            }
        },
        {
            "doubleSided" : true,
            "name" : "Matte.001",
            "pbrMetallicRoughness" : {
                "baseColorFactor" : [
                    0.0033465144224464893,
                    0.7681511640548706,
                    0.16202962398529053,
                    1
                ],
                "metallicFactor" : 0
            }
        },
        {
            "doubleSided" : true,
            "name" : "Matte.002",
            "pbrMetallicRoughness" : {
                "baseColorFactor" : [
                    0.8387987017631531,
                    0.8713662624359131,
                    0,
                    1
                ],
                "metallicFactor" : 0
            }
        }
    ],
    "meshes" : [
        {
            "name" : "Rounded Cube Flat",
            "primitives" : [
                {
                    "attributes" : {
                        "POSITION" : 0,
                        "NORMAL" : 1,
                        "TEXCOORD_0" : 2
                    },
                    "indices" : 3,
                    "material" : 0
                }
            ]
        },
        {
            "name" : "Rounded Cube Flat.001",
            "primitives" : [
                {
                    "attributes" : {
                        "POSITION" : 4,
                        "NORMAL" : 5,
                        "TEXCOORD_0" : 6
                    },
                    "indices" : 3,
                    "material" : 0
                }
            ]
        },
        {
            "name" : "PROCEDURAL_MESHES_CYLINDER#",
            "primitives" : [
                {
                    "attributes" : {
                        "POSITION" : 7,
                        "NORMAL" : 8,
                        "TEXCOORD_0" : 9
                    },
                    "indices" : 10,
                    "material" : 1
                }
            ]
        },
        {
            "name" : "PROCEDURAL_MESHES_CYLINDER#.001",
            "primitives" : [
                {
                    "attributes" : {
                        "POSITION" : 11,
                        "NORMAL" : 12,
                        "TEXCOORD_0" : 13
                    },
                    "indices" : 10,
                    "material" : 2
                }
            ]
        },
        {
            "name" : "PROCEDURAL_MESHES_CYLINDER#.002",
            "primitives" : [
                {
                    "attributes" : {
                        "POSITION" : 14,
                        "NORMAL" : 15,
                        "TEXCOORD_0" : 16
                    },
                    "indices" : 10,
                    "material" : 3
                }
            ]
        }
    ],
    "accessors" : [
        {
            "bufferView" : 0,
            "componentType" : 5126,
            "count" : 15925,
            "max" : [
                0.10017989575862885,
                0.020706389099359512,
                0.10017989575862885
            ],
            "min" : [
                -0.10017989575862885,
                -0.00036475999513641,
                -0.10017989575862885
            ],
            "type" : "VEC3"
        },
        {
            "bufferView" : 1,
            "componentType" : 5126,
            "count" : 15925,
            "type" : "VEC3"
        },
        {
            "bufferView" : 2,
            "componentType" : 5126,
            "count" : 15925,
            "type" : "VEC2"
        },
        {
            "bufferView" : 3,
            "componentType" : 5123,
            "count" : 54084,
            "type" : "SCALAR"
        },
        {
            "bufferView" : 4,
            "componentType" : 5126,
            "count" : 15925,
            "max" : [
                0.10017989575862885,
                0.020706389099359512,
                0.10017989575862885
            ],
            "min" : [
                -0.10017989575862885,
                -0.00036475999513641,
                -0.10017989575862885
            ],
            "type" : "VEC3"
        },
        {
            "bufferView" : 5,
            "componentType" : 5126,
            "count" : 15925,
            "type" : "VEC3"
        },
        {
            "bufferView" : 6,
            "componentType" : 5126,
            "count" : 15925,
            "type" : "VEC2"
        },
        {
            "bufferView" : 7,
            "componentType" : 5126,
            "count" : 14688,
            "max" : [
                0.09999999403953552,
                0.19999998807907104,
                0.09999999403953552
            ],
            "min" : [
                -0.09999999403953552,
                0,
                -0.09999999403953552
            ],
            "type" : "VEC3"
        },
        {
            "bufferView" : 8,
            "componentType" : 5126,
            "count" : 14688,
            "type" : "VEC3"
        },
        {
            "bufferView" : 9,
            "componentType" : 5126,
            "count" : 14688,
            "type" : "VEC2"
        },
        {
            "bufferView" : 10,
            "componentType" : 5123,
            "count" : 14688,
            "type" : "SCALAR"
        },
        {
            "bufferView" : 11,
            "componentType" : 5126,
            "count" : 14688,
            "max" : [
                0.09999999403953552,
                0.19999998807907104,
                0.09999999403953552
            ],
            "min" : [
                -0.09999999403953552,
                0,
                -0.09999999403953552
            ],
            "type" : "VEC3"
        },
        {
            "bufferView" : 12,
            "componentType" : 5126,
            "count" : 14688,
            "type" : "VEC3"
        },
        {
            "bufferView" : 13,
            "componentType" : 5126,
            "count" : 14688,
            "type" : "VEC2"
        },
        {
            "bufferView" : 14,
            "componentType" : 5126,
            "count" : 14688,
            "max" : [
                0.09999999403953552,
                0.19999998807907104,
                0.09999999403953552
            ],
            "min" : [
                -0.09999999403953552,
                0,
                -0.09999999403953552
            ],
            "type" : "VEC3"
        },
        {
            "bufferView" : 15,
            "componentType" : 5126,
            "count" : 14688,
            "type" : "VEC3"
        },
        {
            "bufferView" : 16,
            "componentType" : 5126,
            "count" : 14688,
            "type" : "VEC2"
        }
    ],
    "bufferViews" : [
        {
            "buffer" : 0,
            "byteLength" : 191100,
            "byteOffset" : 0,
            "target" : 34962
        },
        {
            "buffer" : 0,
            "byteLength" : 191100,
            "byteOffset" : 191100,
            "target" : 34962
        },
        {
            "buffer" : 0,
            "byteLength" : 127400,
            "byteOffset" : 382200,
            "target" : 34962
        },
        {
            "buffer" : 0,
            "byteLength" : 108168,
            "byteOffset" : 509600,
            "target" : 34963
        },
        {
            "buffer" : 0,
            "byteLength" : 191100,
            "byteOffset" : 617768,
            "target" : 34962
        },
        {
            "buffer" : 0,
            "byteLength" : 191100,
            "byteOffset" : 808868,
            "target" : 34962
        },
        {
            "buffer" : 0,
            "byteLength" : 127400,
            "byteOffset" : 999968,
            "target" : 34962
        },
        {
            "buffer" : 0,
            "byteLength" : 176256,
            "byteOffset" : 1127368,
            "target" : 34962
        },
        {
            "buffer" : 0,
            "byteLength" : 176256,
            "byteOffset" : 1303624,
            "target" : 34962
        },
        {
            "buffer" : 0,
            "byteLength" : 117504,
            "byteOffset" : 1479880,
            "target" : 34962
        },
        {
            "buffer" : 0,
            "byteLength" : 29376,
            "byteOffset" : 1597384,
            "target" : 34963
        },
        {
            "buffer" : 0,
            "byteLength" : 176256,
            "byteOffset" : 1626760,
            "target" : 34962
        },
        {
            "buffer" : 0,
            "byteLength" : 176256,
            "byteOffset" : 1803016,
            "target" : 34962
        },
        {
            "buffer" : 0,
            "byteLength" : 117504,
            "byteOffset" : 1979272,
            "target" : 34962
        },
        {
            "buffer" : 0,
            "byteLength" : 176256,
            "byteOffset" : 2096776,
            "target" : 34962
        },
        {
            "buffer" : 0,
            "byteLength" : 176256,
            "byteOffset" : 2273032,
            "target" : 34962
        },
        {
            "buffer" : 0,
            "byteLength" : 117504,
            "byteOffset" : 2449288,
            "target" : 34962
        }
    ],
    "buffers" : [
        {
            "byteLength" : 2566792,
            "uri" : "data:application/octet-stream;base64,"
        }
    ]
}
