{
    "asset" : {
        "generator" : "Khronos glTF Blender I/O v3.3.27",
        "version" : "2.0"
    },
    "scene" : 0,
    "scenes" : [
        {
            "name" : "Scene",
            "nodes" : [
                0
            ]
        }
    ],
    "nodes" : [
        {
            "mesh" : 0,
            "name" : "teamslogo"
        }
    ],
    "materials" : [
        {
            "doubleSided" : true,
            "name" : "Material.021",
            "pbrMetallicRoughness" : {
                "baseColorFactor" : [
                    0.08176400512456894,
                    0.17548751831054688,
                    0.8000000715255737,
                    1
                ],
                "metallicFactor" : 0,
                "roughnessFactor" : 0.5
            }
        }
    ],
    "meshes" : [
        {
            "name" : "teamslogo",
            "primitives" : [
                {
                    "attributes" : {
                        "POSITION" : 0,
                        "NORMAL" : 1
                    },
                    "indices" : 2,
                    "material" : 0
                }
            ]
        }
    ],
    "accessors" : [
        {
            "bufferView" : 0,
            "componentType" : 5126,
            "count" : 28739,
            "max" : [
                0.19200000166893005,
                0.18400001525878906,
                0.04800000414252281
            ],
            "min" : [
                -0.20239999890327454,
                -0.18000000715255737,
                2.3992131900740787e-05
            ],
            "type" : "VEC3"
        },
        {
            "bufferView" : 1,
            "componentType" : 5126,
            "count" : 28739,
            "type" : "VEC3"
        },
        {
            "bufferView" : 2,
            "componentType" : 5123,
            "count" : 29271,
            "type" : "SCALAR"
        }
    ],
    "bufferViews" : [
        {
            "buffer" : 0,
            "byteLength" : 344868,
            "byteOffset" : 0,
            "target" : 34962
        },
        {
            "buffer" : 0,
            "byteLength" : 344868,
            "byteOffset" : 344868,
            "target" : 34962
        },
        {
            "buffer" : 0,
            "byteLength" : 58542,
            "byteOffset" : 689736,
            "target" : 34963
        }
    ],
    "buffers" : [
        {
            "byteLength" : 748280,
            "uri" : "data:application/octet-stream;base64,"
        }
    ]
}
