<svg width="605" height="230" viewBox="0 0 605 230" fill="none" xmlns="http://www.w3.org/2000/svg">
<rect x="272" y="115" width="55" height="55" rx="7.85714" fill="#131313" fill-opacity="0.8"/>
<rect x="415.917" y="115" width="55" height="55" rx="7.85714" fill="#131313" fill-opacity="0.8"/>
<rect x="486.633" y="115" width="55" height="55" rx="7.85714" fill="#131313" fill-opacity="0.8"/>
<path d="M311.784 130.216C310.052 128.485 308.512 128.995 308.512 128.995L294.937 142.56L292.654 149.347L299.437 147.062L313.005 133.488C313.005 133.488 313.514 131.948 311.784 130.216V130.216ZM299.89 145.583L299.15 146.322L296.835 147.108C296.656 146.671 296.39 146.275 296.053 145.945C295.722 145.608 295.326 145.342 294.89 145.162L295.675 142.847L296.416 142.109C296.416 142.109 297.635 141.969 298.831 143.166C300.028 144.362 299.89 145.583 299.89 145.583ZM308.368 154.061H287.939V133.633H295.796L298.939 130.49H287.939C286.211 130.49 284.796 131.904 284.796 133.633V154.061C284.796 155.79 286.211 157.204 287.939 157.204H308.368C310.096 157.204 311.511 155.79 311.511 154.061V143.061L308.368 146.204V154.061Z" fill="white"/>
<path d="M445.289 143.061H457.075M457.075 143.061L452.71 137.823M457.075 143.061L452.71 148.299M446.598 136.514V134.122C446.598 133.76 446.523 133.402 446.378 133.07C446.232 132.738 446.019 132.44 445.753 132.195C445.486 131.95 445.172 131.763 444.829 131.645C444.486 131.528 444.123 131.482 443.762 131.512L433.286 132.385C432.631 132.439 432.021 132.738 431.576 133.221C431.131 133.705 430.884 134.338 430.884 134.994V151.128C430.884 151.785 431.131 152.418 431.576 152.901C432.021 153.385 432.631 153.683 433.286 153.738L443.762 154.611C444.123 154.641 444.486 154.596 444.829 154.478C445.172 154.361 445.487 154.173 445.753 153.928C446.02 153.683 446.232 153.385 446.378 153.053C446.523 152.721 446.598 152.362 446.598 152V149.609" stroke="white" stroke-width="2.33333" stroke-linecap="round" stroke-linejoin="round"/>
<g clip-path="url(#clip0_70_6325)">
<path d="M514.693 158.775C518.861 158.775 522.858 157.12 525.805 154.173C528.752 151.226 530.408 147.229 530.408 143.061C530.408 138.894 528.752 134.897 525.805 131.95C522.858 129.003 518.861 127.347 514.693 127.347C510.526 127.347 506.529 129.003 503.582 131.95C500.635 134.897 498.979 138.894 498.979 143.061C498.979 147.229 500.635 151.226 503.582 154.173C506.529 157.12 510.526 158.775 514.693 158.775V158.775ZM509.979 141.49H519.408C519.824 141.49 520.224 141.655 520.519 141.95C520.813 142.245 520.979 142.644 520.979 143.061C520.979 143.478 520.813 143.878 520.519 144.172C520.224 144.467 519.824 144.633 519.408 144.633H509.979C509.562 144.633 509.163 144.467 508.868 144.172C508.573 143.878 508.408 143.478 508.408 143.061C508.408 142.644 508.573 142.245 508.868 141.95C509.163 141.655 509.562 141.49 509.979 141.49Z" fill="white"/>
</g>
<rect width="605" height="230" fill="#333333"/>
<path d="M313.518 115.461V113.958L315.403 112.308C315.751 112.002 315.979 111.582 316.047 111.124C316.116 110.666 316.02 110.198 315.777 109.804L313.459 105.875C313.287 105.577 313.039 105.329 312.741 105.156C312.442 104.984 312.104 104.893 311.76 104.893C311.546 104.891 311.334 104.924 311.131 104.991L308.745 105.796C308.332 105.523 307.903 105.276 307.458 105.06L306.957 102.585C306.867 102.133 306.621 101.726 306.262 101.437C305.903 101.148 305.454 100.995 304.993 101.004H300.396C299.935 100.995 299.486 101.148 299.127 101.437C298.768 101.726 298.522 102.133 298.432 102.585L297.931 105.06C297.483 105.276 297.05 105.523 296.635 105.796L294.297 104.952C294.092 104.898 293.88 104.878 293.669 104.893C293.324 104.893 292.986 104.984 292.688 105.156C292.389 105.329 292.142 105.577 291.97 105.875L289.652 109.804C289.422 110.197 289.337 110.659 289.411 111.108C289.484 111.558 289.712 111.968 290.054 112.269L291.911 113.968V115.471L290.054 117.121C289.702 117.423 289.468 117.841 289.395 118.299C289.321 118.757 289.412 119.227 289.652 119.625L291.97 123.554C292.142 123.852 292.389 124.1 292.688 124.272C292.986 124.444 293.324 124.535 293.669 124.536C293.882 124.537 294.094 124.504 294.297 124.437L296.684 123.632C297.096 123.906 297.526 124.152 297.97 124.369L298.471 126.844C298.561 127.296 298.807 127.702 299.166 127.991C299.525 128.28 299.975 128.434 300.436 128.425H305.071C305.532 128.434 305.982 128.28 306.341 127.991C306.7 127.702 306.946 127.296 307.036 126.844L307.536 124.369C307.984 124.152 308.417 123.906 308.833 123.632L311.21 124.437C311.412 124.504 311.625 124.537 311.838 124.536C312.183 124.535 312.521 124.444 312.819 124.272C313.117 124.1 313.365 123.852 313.537 123.554L315.777 119.625C316.006 119.231 316.091 118.77 316.018 118.32C315.944 117.87 315.717 117.46 315.374 117.16L313.518 115.461ZM311.76 122.571L308.391 121.432C307.602 122.1 306.701 122.622 305.729 122.974L305.032 126.5H300.396L299.699 123.013C298.735 122.652 297.839 122.13 297.047 121.471L293.669 122.571L291.351 118.643L294.022 116.286C293.841 115.269 293.841 114.228 294.022 113.212L291.351 110.786L293.669 106.857L297.037 107.996C297.826 107.328 298.727 106.806 299.699 106.454L300.396 102.929H305.032L305.729 106.415C306.693 106.777 307.59 107.298 308.381 107.957L311.76 106.857L314.078 110.786L311.406 113.143C311.588 114.159 311.588 115.2 311.406 116.217L314.078 118.643L311.76 122.571Z" fill="white"/>
<path d="M302.714 120.607C301.549 120.607 300.41 120.262 299.44 119.614C298.471 118.966 297.716 118.046 297.27 116.969C296.824 115.893 296.707 114.708 296.935 113.565C297.162 112.422 297.723 111.372 298.548 110.547C299.372 109.723 300.422 109.162 301.565 108.935C302.708 108.707 303.893 108.824 304.969 109.27C306.046 109.716 306.967 110.471 307.614 111.44C308.262 112.409 308.607 113.549 308.607 114.714C308.615 115.49 308.468 116.26 308.175 116.979C307.881 117.697 307.448 118.35 306.899 118.899C306.35 119.447 305.697 119.881 304.979 120.175C304.26 120.468 303.49 120.615 302.714 120.607V120.607ZM302.714 110.786C302.195 110.774 301.679 110.867 301.197 111.06C300.715 111.253 300.277 111.542 299.91 111.909C299.542 112.277 299.253 112.715 299.06 113.197C298.867 113.679 298.774 114.195 298.786 114.714C298.774 115.233 298.867 115.75 299.06 116.232C299.253 116.714 299.542 117.152 299.91 117.519C300.277 117.886 300.715 118.175 301.197 118.368C301.679 118.562 302.195 118.655 302.714 118.643C303.234 118.655 303.75 118.562 304.232 118.368C304.714 118.175 305.152 117.886 305.519 117.519C305.886 117.152 306.175 116.714 306.369 116.232C306.562 115.75 306.655 115.233 306.643 114.714C306.655 114.195 306.562 113.679 306.369 113.197C306.175 112.715 305.886 112.277 305.519 111.909C305.152 111.542 304.714 111.253 304.232 111.06C303.75 110.867 303.234 110.774 302.714 110.786Z" fill="white"/>
<defs>
<clipPath id="clip0_70_6325">
<rect width="31.4286" height="31.4286" fill="white" transform="translate(498.979 127.347)"/>
</clipPath>
</defs>
</svg>
